<svg width="40" height="40" viewBox="0 0 40 40" fill="none" xmlns="http://www.w3.org/2000/svg">
    <rect x="2" y="2" width="36" height="36" rx="10" fill="url(#bgGradient)"/>

    <path d="M8.5 11.5C11.8 10.1 15.4 10.1 18.7 11.5V28C15.4 26.6 11.8 26.6 8.5 28V11.5Z"
          fill="url(#pageLeft)"/>
    <path d="M21.3 11.5C24.6 10.1 28.2 10.1 31.5 11.5V28C28.2 26.6 24.6 26.6 21.3 28V11.5Z"
          fill="url(#pageRight)"/>

    <rect x="19.25" y="11.4" width="1.5" height="16.8" rx="0.75" fill="#D9E5FF" fill-opacity="0.9"/>

    <path d="M16.1 20L28.7 15.2V24.8L16.1 20Z" fill="url(#runArrow)"/>
    <path d="M11.2 18.5H14.7" stroke="#FFD27A" stroke-width="1.6" stroke-linecap="round"/>
    <path d="M9.9 21.2H13.6" stroke="#FFD27A" stroke-width="1.6" stroke-linecap="round" stroke-opacity="0.9"/>
    <path d="M11.2 23.9H14.7" stroke="#FFD27A" stroke-width="1.6" stroke-linecap="round" stroke-opacity="0.8"/>

    <defs>
        <linearGradient id="bgGradient" x1="4" y1="4" x2="36" y2="36" gradientUnits="userSpaceOnUse">
            <stop offset="0" stop-color="#0A3B62"/>
            <stop offset="1" stop-color="#0D7C8C"/>
        </linearGradient>
        <linearGradient id="pageLeft" x1="8.5" y1="11" x2="19" y2="28" gradientUnits="userSpaceOnUse">
            <stop offset="0" stop-color="#E7F4FF"/>
            <stop offset="1" stop-color="#BEDDFF"/>
        </linearGradient>
        <linearGradient id="pageRight" x1="21" y1="11" x2="31.5" y2="28" gradientUnits="userSpaceOnUse">
            <stop offset="0" stop-color="#F1F8FF"/>
            <stop offset="1" stop-color="#C8E6FF"/>
        </linearGradient>
        <linearGradient id="runArrow" x1="16.1" y1="15.2" x2="29.8" y2="25.8" gradientUnits="userSpaceOnUse">
            <stop offset="0" stop-color="#FF8A4C"/>
            <stop offset="1" stop-color="#FFC43D"/>
        </linearGradient>
    </defs>
</svg>
